<svg xmlns="http://www.w3.org/2000/svg" width="500" zoomAndPan="magnify" viewBox="0 0 375 375" height="500" preserveAspectRatio="xMidYMid meet" xmlns:v="https://vecta.io/nano"><defs><clipPath id="A"><path d="M4.422 4.422h366v366h-366zm0 0" clip-rule="nonzero"/></clipPath></defs><g clip-path="url(#A)"><path fill="#60007d" d="M370.566 187.559c0 101.043-81.914 182.957-182.961 182.957-13.348.02-26.539-1.414-39.57-4.293a181.64 181.64 0 0 1-37.699-12.777 76 76 0 0 0-11.219-4.203 76.07 76.07 0 0 0-11.738-2.387 76.13 76.13 0 0 0-11.969-.512c-4.004.145-7.973.602-11.902 1.375l-28.562 5.621c-12.102 2.383-21.531-10.371-15.699-21.242 11.293-21.055 12.195-46.219 2.176-67.91C15.91 252.242 11.738 239.848 8.91 227s-4.246-25.848-4.262-39.004C4.41 86.859 86.199 4.746 187.336 4.598c101.168-.145 183.23 81.824 183.23 182.961zm0 0"/></g><path fill="#fff" d="M344.219 187.559l-.187 7.684-.566 7.664-.941 7.629-1.312 7.574-1.684 7.5-2.051 7.41-2.41 7.297-2.77 7.172-3.113 7.027-3.457 6.867-3.789 6.688-4.113 6.496-4.426 6.285-4.727 6.059-5.023 5.82-5.301 5.566-5.566 5.301-5.82 5.023-6.059 4.727-6.285 4.43-6.496 4.109-6.687 3.789-6.867 3.457-7.027 3.117-7.172 2.766-7.297 2.41-7.41 2.051-7.5 1.684-7.574 1.313-7.629.941-7.664.566-7.687.188a157.48 157.48 0 0 1-7.684-.187l-7.664-.566-7.629-.941-7.574-1.312-7.5-1.684-7.41-2.051-7.297-2.41-7.172-2.766-7.027-3.117-6.867-3.457-6.687-3.789-6.496-4.109-6.285-4.43-6.059-4.727-5.82-5.023-5.57-5.301-5.297-5.566-5.023-5.82-4.727-6.059-4.43-6.285-4.109-6.496-3.789-6.687-3.457-6.867-3.117-7.027-2.766-7.172-2.41-7.297-2.051-7.41-1.684-7.5-1.312-7.574-.941-7.629-.566-7.664-.187-7.684.188-7.687.566-7.664.941-7.629 1.313-7.574 1.684-7.5 2.051-7.41 2.41-7.297 2.766-7.172 3.117-7.027 3.457-6.867 3.789-6.687 4.109-6.496 4.43-6.285 4.727-6.059 5.023-5.82 5.297-5.566 5.57-5.301 5.82-5.023 6.059-4.727 6.285-4.426 6.496-4.113 6.688-3.789 6.867-3.457 7.027-3.113 7.172-2.77 7.297-2.41 7.41-2.051 7.5-1.684 7.574-1.312 7.629-.941 7.664-.566 7.684-.187 7.688.188 7.664.566 7.629.941 7.574 1.313 7.5 1.684 7.41 2.051 7.297 2.41 7.172 2.77 7.027 3.113 6.867 3.457 6.688 3.789 6.496 4.113 6.285 4.426 6.059 4.727 5.82 5.023 5.566 5.301 5.301 5.566 5.023 5.82 4.727 6.059 4.426 6.285 4.113 6.496 3.789 6.688 3.457 6.867 3.113 7.027 2.77 7.172 2.41 7.297 2.051 7.41 1.684 7.5 1.313 7.574.941 7.629.566 7.664.188 7.688zm0 0"/><path fill="#60007d" d="M316.254 187.559l-.156 6.313-.465 6.297-.773 6.266-1.078 6.223-1.383 6.16-1.684 6.086-1.98 5.992-2.273 5.895-2.559 5.77-2.84 5.641-3.113 5.496-3.375 5.332-3.637 5.164-3.887 4.977-4.125 4.781-4.352 4.574-4.574 4.355-4.781 4.121-4.977 3.887-5.164 3.637-5.332 3.375-5.496 3.113-5.641 2.84-5.773 2.559-5.891 2.273-5.996 1.98-6.082 1.684-6.164 1.383-6.219 1.082-6.27.77-6.297.465-6.312.156c-2.105 0-4.207-.051-6.312-.156l-6.297-.465-6.266-.77-6.223-1.082-6.16-1.383-6.086-1.684-5.996-1.98-5.891-2.273-5.77-2.559-5.641-2.84-5.496-3.113-5.332-3.375-5.164-3.637-4.977-3.887-4.781-4.121-4.574-4.355-4.355-4.574-4.121-4.781-3.887-4.977-3.637-5.164-3.379-5.332-3.109-5.496-2.84-5.641-2.559-5.77-2.273-5.895-1.98-5.992-1.684-6.086-1.383-6.16-1.082-6.223-.77-6.266-.465-6.297-.156-6.312.156-6.312.465-6.297.77-6.27 1.082-6.219 1.383-6.164 1.684-6.082 1.98-5.996 2.273-5.895 2.559-5.77 2.84-5.641 3.109-5.496 3.379-5.332 3.637-5.164 3.887-4.977 4.121-4.781 4.355-4.574 4.574-4.352 4.781-4.125 4.977-3.887 5.164-3.637 5.332-3.375 5.496-3.113 5.641-2.84 5.77-2.559 5.891-2.273 5.996-1.98 6.086-1.684 6.16-1.383 6.223-1.078 6.266-.773 6.297-.465 6.313-.156 6.313.156 6.297.465 6.27.773 6.219 1.078 6.164 1.383 6.082 1.684 5.996 1.98 5.891 2.273 5.773 2.559 5.641 2.84 5.496 3.113 5.332 3.375 5.164 3.637 4.977 3.887L274 92.238l4.574 4.352 4.352 4.574 4.125 4.781 3.887 4.977 3.637 5.164 3.375 5.332 3.113 5.496 2.84 5.641 2.559 5.77 2.273 5.895 1.98 5.996 1.684 6.082 1.383 6.164 1.078 6.219.773 6.27.465 6.297.156 6.313zm0 0"/><path fill="#fff" d="M168.754 158.684l-6.5-19.418c-.184-.555-.398-1.094-.641-1.625a16.69 16.69 0 0 0-.809-1.551l-.965-1.453c-.348-.469-.719-.918-1.113-1.348a16.73 16.73 0 0 0-2.621-2.305l-1.477-.934c-.508-.285-1.031-.539-1.566-.77s-1.082-.434-1.637-.605l-1.695-.43c-.57-.113-1.148-.195-1.727-.25s-1.164-.074-1.746-.062a16.24 16.24 0 0 0-1.742.117c-.578.07-1.152.168-1.723.301a16.08 16.08 0 0 0-1.68.48c-.551.188-1.09.406-1.617.652l-10.488 4.887a16.58 16.58 0 0 0-2.426 1.391 16.5 16.5 0 0 0-2.156 1.777c-.672.656-1.281 1.359-1.832 2.117a16.76 16.76 0 0 0-1.449 2.395c-.414.836-.754 1.703-1.023 2.602a16.73 16.73 0 0 0-.578 2.738c-.113.926-.148 1.859-.105 2.793a16.19 16.19 0 0 0 .359 2.773c6.563 30.352 30.688 103.027 112.141 112.086a16.67 16.67 0 0 0 2.418.094 17.17 17.17 0 0 0 2.406-.262c.797-.145 1.578-.348 2.344-.605a17.18 17.18 0 0 0 2.23-.941 16.85 16.85 0 0 0 2.066-1.258 16.77 16.77 0 0 0 1.867-1.539 16.87 16.87 0 0 0 1.621-1.801 16.54 16.54 0 0 0 1.344-2.012l5.406-9.555c.266-.473.512-.957.73-1.453a15.31 15.31 0 0 0 .586-1.523c.172-.516.316-1.039.434-1.57s.211-1.066.277-1.605.109-1.082.121-1.625a17.44 17.44 0 0 0-.039-1.629 17.25 17.25 0 0 0-.203-1.617 15.83 15.83 0 0 0-.355-1.59 16.67 16.67 0 0 0-.512-1.547 16.89 16.89 0 0 0-.66-1.488 16.94 16.94 0 0 0-.805-1.418c-.293-.461-.605-.902-.937-1.332a16.89 16.89 0 0 0-1.066-1.234c-.375-.395-.77-.766-1.18-1.121s-.84-.691-1.285-1.004-.902-.602-1.379-.871l-.109-.062-14.52-8.07a16.8 16.8 0 0 0-2.43-1.105c-.84-.301-1.699-.535-2.578-.699s-1.762-.258-2.656-.281-1.781.027-2.668.152a16.5 16.5 0 0 0-2.605.574 16.21 16.21 0 0 0-2.484.988 16.62 16.62 0 0 0-2.293 1.371 16.83 16.83 0 0 0-2.039 1.719 16.58 16.58 0 0 1-2.027 1.715 16.23 16.23 0 0 1-2.277 1.371 16.77 16.77 0 0 1-2.461.988c-.852.262-1.715.457-2.594.582a16.69 16.69 0 0 1-2.648.16 16.62 16.62 0 0 1-2.641-.266c-.875-.156-1.73-.387-2.566-.68s-1.645-.66-2.426-1.086c-8.824-4.848-20.926-13.121-29.406-25.34a16.98 16.98 0 0 1-1.266-2.137c-.367-.742-.676-1.512-.93-2.301s-.449-1.598-.582-2.414-.203-1.645-.215-2.477a16.99 16.99 0 0 1 .156-2.48 16.67 16.67 0 0 1 .523-2.426c.234-.797.527-1.57.879-2.324a16.34 16.34 0 0 1 1.211-2.168l3.121-4.691a16.69 16.69 0 0 0 1.719-3.355c.445-1.184.75-2.402.914-3.656a16.44 16.44 0 0 0 .07-3.77c-.121-1.258-.383-2.484-.781-3.684zm0 0"/></svg>